<?xml version="1.0" standalone="no"?>
<!DOCTYPE svg PUBLIC "-//W3C//DTD SVG 1.1//EN">
<svg class="icon" viewBox="0 0 1024 1024" version="1.1" xmlns="http://www.w3.org/2000/svg"
     width="36" height="36" xmlns:xlink="http://www.w3.org/1999/xlink">
    <defs>
        <style type="text/css"/>
    </defs>
    <path d="M237.510584 321.817774h555.362306v427.69281c0 44.684323-25.533899 70.218223-70.218222 70.218223h-31.917374v146.81992c0 31.917374-25.533899 57.451273-57.451273 57.451273s-57.451273-19.150424-63.834748-51.067798v-146.81992h-108.519071v146.81992c0 25.533899-25.533899 44.684323-51.067798 51.067798-31.917374 0-57.451273-12.76695-63.834748-38.300849v-6.383474-121.286021-19.150425h-38.300849c-38.300849 0-63.834748-25.533899-63.834748-63.834747v-421.309336l-6.383475-31.917374z m548.978832-38.300848h-548.978832c0-95.752122 57.451273-153.203395 140.436446-197.887719-12.76695-12.76695-19.150424-25.533899-25.533899-38.300848-6.383475-6.383475-12.76695-12.76695-19.150425-25.533899-6.383475-6.383475-12.76695-12.76695 0-19.150425 12.76695-6.383475 12.76695 0 19.150425 6.383475 6.383475 19.150424 19.150424 31.917374 31.917373 51.067798s12.76695 19.150424 31.917374 12.76695c70.218223-19.150424 140.436445-19.150424 204.271193 6.383475h6.383475c12.76695-19.150424 25.533899-44.684323 44.684323-63.834748l6.383475-6.383475c6.383475-6.383475 6.383475-12.76695 12.76695-6.383475s6.383475 12.76695 0 12.76695l-38.300849 57.451273c0 6.383475-6.383475 6.383475-6.383475 12.766949 82.985172 44.684323 140.436445 102.135596 140.436446 197.887719z m-127.669496-108.519072c0-19.150424-12.76695-31.917374-31.917374-31.917374s-31.917374 12.76695-31.917374 31.917374 12.76695 31.917374 31.917374 31.917374 31.917374-12.76695 31.917374-31.917374z m-236.188567 0c0-19.150424-12.76695-31.917374-31.917374-31.917374s-31.917374 12.76695-31.917374 31.917374 12.76695 31.917374 31.917374 31.917374 31.917374-12.76695 31.917374-31.917374z m523.444932 338.324164v121.28602c0 38.300849-25.533899 63.834748-57.451273 63.834748s-57.451273-25.533899-57.451273-63.834748V385.652522c0-31.917374 25.533899-57.451273 51.067798-57.451273 31.917374-6.383475 57.451273 19.150424 63.834748 44.684323V513.322018zM192.826261 513.322018v127.669495c0 25.533899-19.150424 51.067798-44.684323 57.451273-25.533899 6.383475-51.067798-6.383475-63.834748-25.533899-6.383475-6.383475-6.383475-19.150424-6.383475-31.917374v-255.338991c0-38.300849 25.533899-63.834748 57.451273-63.834748s57.451273 25.533899 57.451273 63.834748c6.383475 38.300849 0 82.985172 0 127.669496z"
          fill="#17abe3"/>
</svg>